<?xml version="1.0" encoding="utf-8"?>
<!DOCTYPE svg PUBLIC "-//W3C//DTD SVG 20010904//EN" "http://www.w3.org/TR/2001/REC-SVG-20010904/DTD/svg10.dtd">
<svg version="1.0" xmlns="http://www.w3.org/2000/svg" width="10000px" height="4403px" viewBox="0 0 10000 4403" preserveAspectRatio="xMidYMid meet">
 <g fill="#ffffff">
  <path d="M8139 4178.2 c-8 -16.3 -21.6 -39.8 -30.5 -52.8 l-15.9 -23.9 22.2 -4 c56.1 -10.3 165.2 -40.1 185.8 -51.1 l8 -4 -12.9 -9.6 c-7 -5.3 -18.6 -15.3 -26.2 -22.2 l-13.6 -12.6 -12.9 11.3 c-11.6 10 -32.5 24.6 -47.8 33.5 -3.3 2 -8 5.3 -10.3 7.3 -4.3 3.3 -59.1 34.2 -61 34.2 -0.3 0 -4 -6.3 -8 -14.3 -4 -7.6 -17.3 -27.5 -29.5 -43.8 l-22.2 -29.9 -1 95.6 -0.7 95.2 -64.7 0 -64.7 0 0 -160.9 c0 -88.6 -1 -160.9 -2 -160.9 -1 0 -11.3 8 -22.6 17.9 l-20.2 17.9 -6.3 -15.3 c-10 -24.9 -38.2 -83.3 -47.4 -97.9 l-8.6 -13.6 13.3 -11.6 c7 -6.6 26.2 -23.9 42.5 -38.5 34.2 -30.5 97.9 -99.2 143.7 -154.6 l31.9 -38.8 28.5 21.9 c15.6 12.3 28.9 22.9 29.9 23.9 1 1 10.9 9 22.2 17.6 l20.6 15.6 -30.5 38.8 c-16.9 21.2 -38.5 48.1 -47.8 59.7 l-17.6 20.6 0 124.8 c0 68.3 0.7 124.4 1.7 124.4 3.6 0 21.2 -9 37.2 -18.9 9.6 -6 17.9 -10.9 18.9 -10.9 9 0 78.3 -57.4 118.1 -97.5 l31.5 -31.9 -35.8 0 -35.5 0 -0.7 -125.1 -1 -125.1 -11.6 11.3 c-6.3 6.3 -14.9 14.3 -18.9 17.9 l-7.3 6 -39.2 -39.5 c-21.6 -21.6 -43.8 -42.1 -49.4 -45.5 l-10.3 -6.3 43.8 -43.5 c41.1 -40.8 85.3 -95.6 116.1 -143.7 7.3 -11.6 14.6 -20.9 16.3 -20.9 1.7 0 20.2 6 41.5 13.6 21.2 7.3 48.1 16.6 60.1 20.6 11.9 4 21.9 7.3 22.6 7.6 0.7 0.3 -3.3 8 -9 16.6 l-10 16.3 190.4 1 190.8 0.7 0 51.4 0 51.4 -228.3 0 -228.6 0 -8.6 12.6 -9 12.3 207.4 1 207.4 0.7 0 154.3 0 154.3 -120.4 0 -120.4 0 -6.6 9.3 c-3.6 5 -8 10.9 -9.3 13.3 -2 3.3 17.9 4.3 104.2 4 l107.2 -0.7 11.6 9.6 c30.2 23.9 70.3 57.7 70.3 59.4 0 5.3 -73 79.6 -108.8 110.8 l-20.9 17.9 12.6 4.6 c22.9 8 78.3 20.2 130.4 28.9 28.2 4.6 51.4 9 51.8 9.3 0.3 0.3 -6 11.9 -13.9 25.5 -8 13.6 -21.2 40.5 -29.9 59.7 -8.6 19.2 -15.6 35.2 -15.9 35.5 -0.7 1 -80 -17.9 -99.9 -23.9 -61 -18.6 -101.9 -32.8 -140.7 -49.8 -22.6 -9.6 -29.5 -11.3 -36.5 -8.6 -4.6 1.7 -23.6 9.3 -41.8 16.9 -42.1 17.6 -79.6 30.5 -124.1 43.1 -36.5 10.3 -93.9 23.2 -103.2 23.2 -3.3 0 -10.3 -10.6 -19.6 -28.9z m328.8 -212 c15.3 -10.3 28.9 -19.9 30.9 -21.6 1.7 -1.7 -23.9 -3 -63 -3 -65 0 -66 0 -59.7 6.3 11.6 10.9 52.4 36.8 58.4 36.8 3.3 0 18.6 -8.3 33.5 -18.6z m62.4 -250.2 l0 -16.6 -104.5 0 -104.5 0 0 14.3 c0 8 1 15.6 2.3 16.6 1 1.3 48.1 2.3 104.5 2.3 l102.2 0 0 -16.6z m0 -107.8 l0 -14.9 -104.5 0 -104.5 0 0 14.9 0 14.9 104.5 0 104.5 0 0 -14.9z"/>
  <path d="M953.6 4184.8 c-10.6 -47.1 -29.2 -87.9 -56.4 -124.4 l-17.9 -24.2 17.3 -2.7 c117.1 -16.6 176.5 -33.5 253.2 -72.3 80 -40.1 157.9 -116.1 202.4 -196.4 6.3 -11.9 11.6 -22.6 11.6 -23.6 0 -1 -121.8 -2 -270.4 -2 l-270.4 0 0 -74.7 0 -74.7 323.8 0 c216 0 325.8 -1 330.1 -3.3 5.3 -3 13.3 2.3 55.1 38.5 27.2 23.2 50.4 43.5 52.1 44.8 3 2.7 -0.7 11.3 -42.5 99.2 -61.4 129.7 -149.3 235.2 -249.2 299.3 -52.8 34.2 -117.8 64.7 -190.8 90.2 -26.5 9 -108.5 29.9 -131.7 33.2 -13.3 2 -14.3 1.7 -16.3 -7z"/>
  <path d="M9200.4 3994.7 l0 -195.8 99.5 0 99.5 0 0 -44.8 0 -44.8 -121.1 0 -121.1 0 0 -69.7 0 -69.7 121.1 0 121.1 0 0 -34.8 c0 -19.2 -1 -34.8 -2.3 -34.8 -1.7 0 -20.6 2.3 -42.5 5 -21.9 2.3 -54.1 5 -71 5.3 l-31.5 0.7 -7.6 -21.2 c-8.3 -22.9 -29.9 -68.3 -44.5 -93.2 l-9 -15.3 15.3 -2 c8.6 -1 29.9 -2.7 47.1 -3.6 136 -8.6 280.4 -31.5 394.8 -63 16.9 -4.6 18.6 -4.6 21.6 0.3 2 3 14.6 20.6 28.2 39.2 13.6 18.6 27.5 37.5 30.5 41.8 3.3 4.6 11.3 15.9 17.6 24.9 l11.6 16.6 -10.6 2 c-6 1 -28.2 6 -49.1 10.6 -47.1 10.6 -102.2 21.2 -125.1 23.9 l-17.6 2.3 0 47.8 0 47.8 126.1 0 126.1 0 0 69.7 0 69.7 -126.1 0 -126.1 0 0 44.8 0 44.8 101.2 0 101.2 0 0 195.8 0 195.8 -76.3 0 -76.3 0 0 -18.2 0 -18.2 -129.4 0 -129.4 0 0 18.2 0 18.2 -73 0 -73 0 0 -195.8z m404.8 -16.6 l0 -49.8 -129.4 0 -129.4 0 0 49.8 0 49.8 129.4 0 129.4 0 0 -49.8z"/>
  <path d="M8955.5 4156.3 l-60.7 -30.5 12.9 -24.9 c7 -13.6 26.5 -51.1 42.8 -82.9 35.8 -69.3 84.3 -163.2 91.6 -178.2 l5.6 -10.3 33.8 17.3 c18.9 9.6 46.1 22.6 61 28.9 l26.5 10.9 -36.5 73.3 c-20.2 40.1 -53.7 107.8 -74.7 150.3 -20.9 42.1 -38.8 77 -39.8 76.6 -1 0 -29.2 -13.9 -62.7 -30.5z"/>
  <path d="M4071 3913.4 l0 -267.1 -167.6 0 -167.6 0 0 -74.7 0 -74.7 167.6 0 167.6 0 0 -78 0 -78 81.3 0 81.3 0 0 78 0 78 100.5 0 100.2 0 -24.9 -24.2 c-13.6 -13.6 -33.5 -31.2 -43.8 -39.5 l-18.6 -15.3 22.2 -21.2 c41.8 -39.8 38.5 -37.5 49.1 -30.9 15.6 10.3 84.3 73.3 103.2 94.9 l7.6 9 -11.6 12.6 -11.9 12.9 29.9 1 29.9 1 0 74.3 0 74.7 -165.9 0 -165.9 0 0 267.1 0 267.1 -81.3 0 -81.3 0 0 -267.1z"/>
  <path d="M63 3760.8 l0 -416.4 86.3 0 86.3 0 0 122.4 0 122.8 7.6 2 c36.5 10.9 184.5 68.7 232.9 91.2 70.7 32.8 170.9 84.9 170.9 88.9 0 2.3 -83.3 143.3 -84.6 143.3 -0.7 0 -15.3 -9 -32.8 -20.2 -50.4 -31.5 -154.9 -83.6 -247.5 -123.1 l-44.8 -18.9 -1 212 -0.7 212.3 -86.3 0 -86.3 0 0 -416.4z"/>
  <path d="M5776.7 4149.3 c-15.9 -34.2 -37.2 -64.7 -64 -91.6 -10.9 -11.3 -19.6 -20.9 -18.9 -21.2 0.7 -0.7 10.3 -5.6 21.2 -11.3 85.6 -43.1 148.6 -120.1 175.5 -213.7 18.2 -64 19.6 -77 20.9 -228.9 l1.7 -142 82.9 0 83.3 0 -2 120.4 c-3.3 191.4 -14.6 278 -49.1 366.3 -13.9 35.2 -37.2 76.6 -59.1 105.2 -18.9 24.6 -61 65 -91.6 88.6 -23.2 17.9 -82 56.1 -85.9 56.1 -1 0 -7.6 -12.6 -14.9 -27.9z"/>
  <path d="M2828.8 4162.2 c-3 -4.3 -5.3 -8.6 -5.3 -9.6 0 -1 -14.3 -31.2 -31.5 -67 -17.6 -35.8 -31.2 -66.7 -30.9 -68.3 0.7 -2 10.9 -6.6 22.6 -10.9 125.1 -44.1 249.8 -105.5 346.7 -170.5 31.5 -21.6 77 -56.4 111.1 -86.3 45.5 -39.2 128.7 -124.8 166.2 -170.9 4.3 -5.6 13.3 -15.9 19.9 -23.2 6.3 -7.6 14.6 -17.6 18.6 -22.6 l6.6 -9 13.9 21.2 c19.6 29.5 49.8 61.7 77 82 22.9 16.9 22.9 16.9 16.9 23.9 -3.3 4 -15.6 18.2 -27.2 31.9 -81.3 94.2 -179.8 189.8 -262.1 252.8 -94.6 72.7 -212 138 -373.3 207.4 -70 30.2 -63.4 28.5 -69.3 19.2z"/>
  <path d="M7261.1 4154.9 c-7.6 -34.8 -34.8 -97.9 -55.7 -128.7 l-9 -13.3 31.5 -4 c109.5 -13.6 196.4 -56.4 236.9 -116.8 27.2 -40.5 39.5 -77 42.5 -126.4 7 -118.1 -52.1 -197.4 -169.2 -226.9 -14.3 -3.6 -19.6 -3.6 -20.6 -1 -0.7 2.3 -4.3 21.2 -8.3 42.1 -25.5 134.4 -78 282.3 -135.4 380.6 -37.5 64 -86.3 111.8 -131.7 129.1 -12.3 4.6 -25.2 6.3 -49.8 6.3 -28.9 0 -35.5 -1 -51.4 -8.6 -73 -34.5 -124.1 -130.4 -131.4 -245.2 -3.6 -64.7 10.3 -140 37.2 -198.7 24.9 -54.4 76.3 -117.5 123.8 -152.6 27.9 -20.6 77.6 -47.1 109.8 -58.4 124.4 -43.5 291.3 -39.8 397.8 9 104.5 47.8 174.2 145 191.4 268.1 5.6 40.1 5.6 66 0 109.5 -17.6 129.1 -96.5 228.6 -232.2 292.3 -39.2 18.2 -106.5 39.5 -152.3 47.4 -7 1.3 -14.9 3.3 -17.3 4 -3 1.3 -5.3 -1.3 -6.6 -7.6z m-239.2 -226.9 c29.2 -22.9 69.3 -108.5 101.5 -215.3 14.6 -49.1 43.8 -166.2 41.8 -168.2 -2 -2 -41.5 13.3 -67 25.9 -68.7 33.8 -111.1 88.6 -134.4 173.9 -7 25.2 -6.3 114.1 1 137.7 10 31.9 26.2 51.1 44.5 52.8 2 0.3 7.6 -2.7 12.6 -6.6z"/>
  <path d="M6204 4097.9 l-47.8 -49.4 1 -338.8 0.7 -338.8 82.9 0 82.9 0 0.7 264.1 1 264.4 18.2 -14.6 c28.2 -22.2 76 -68.3 106.5 -102.5 16.9 -19.2 58.1 -76.6 72 -100.2 8 -14.3 14.9 -25.9 15.3 -25.9 0 0 15.9 15.3 35.2 34.2 19.2 18.6 48.1 42.8 64 53.4 15.9 10.9 28.9 20.9 28.9 21.9 0 4.3 -43.1 67 -62.7 91.2 -35.2 44.1 -80.3 87.9 -159.6 155.6 -31.5 26.9 -173.9 128.4 -187.5 133.4 -2.3 1 -25.5 -20.6 -51.8 -48.1z"/>
  <path d="M2279.4 4115.8 l0 -14.9 -247.2 0 -247.2 0 0 -76.3 0 -76.3 247.2 0 247.2 0 0 -144.3 0 -144.3 -247.2 0 -247.2 0 0 -78 0 -78 320.5 0 c274.4 0 320.2 -0.7 316.9 -4.6 -2.3 -2.7 -15.9 -12.6 -30.2 -21.9 -14.6 -9.6 -26.5 -18.2 -26.5 -19.6 0 -1.3 13.3 -15.3 29.2 -31.2 l29.2 -28.9 16.3 10.3 c27.5 17.6 111.1 82.9 111.1 86.9 0 0.7 -13.6 15.3 -29.9 32.5 l-29.9 30.9 -14.3 -13.9 c-7.6 -7.6 -15.3 -13.9 -16.6 -13.9 -1.3 0 -2.3 135 -2.3 300.3 l0 300.3 -89.6 0 -89.6 0 0 -14.9z"/>
  <path d="M3800.6 4066.4 c-24.6 -25.9 -59.4 -52.4 -86.3 -65.7 l-20.6 -10.3 34.8 -33.5 c59.1 -57.1 104.8 -122.1 146 -208 10.9 -22.6 20.6 -44.5 21.9 -48.4 2.3 -7.6 -7 -10.6 112.5 35.8 13.9 5.6 25.5 11.3 25.5 12.6 0 7 -25.9 66.7 -48.8 112.8 -38.8 78.3 -94.2 156.3 -147.6 208.4 l-17.6 17.3 -19.9 -20.9z"/>
  <path d="M4458.5 4031.9 c-30.2 -30.5 -43.8 -45.1 -56.7 -62 -1.3 -1.7 -7 -9.3 -12.6 -16.6 -36.2 -46.8 -115.8 -193.8 -115.8 -213.3 0 -1.3 9.3 -7 20.9 -11.9 33.2 -15.3 68.7 -31.9 91.2 -42.5 11.6 -5.3 21.6 -9.3 21.9 -8.6 0.7 0.3 10.6 21.2 22.9 45.8 45.5 93.2 100.2 168.2 158.3 216.7 15.6 12.9 30.2 25.2 32.5 27.2 3.3 3 0 6.3 -15.9 14.6 -34.8 18.6 -60.4 37.2 -86.6 62.4 l-24.9 24.2 -35.2 -35.8z"/>
  <path d="M4774.4 3752.5 l0 -76.3 388.2 0 388.2 0 0 76.3 0 76.3 -388.2 0 -388.2 0 0 -76.3z"/>
  <path d="M9038.2 3730.6 c-31.2 -17.6 -56.4 -31.2 -93.2 -49.4 -20.9 -10.6 -38.5 -19.6 -39.2 -19.9 -0.7 -0.7 7 -13.3 16.9 -28.5 9.6 -15.3 24.2 -37.8 31.9 -50.1 8 -12.6 15.9 -22.6 17.6 -22.6 9.6 0 142.3 68.7 146.6 75.6 1.7 3 -58.7 101.2 -63 102.5 -1.7 0.3 -9.6 -3 -17.6 -7.6z"/>
  <path d="M2979.1 3673.9 c-0.7 -1.3 -21.6 -19.6 -46.1 -40.5 -24.6 -20.6 -48.4 -40.5 -53.1 -44.5 -11.6 -10 -116.8 -84.6 -129.1 -91.9 -5 -2.7 -3 -5.6 60.4 -82.6 33.5 -40.5 36.5 -43.1 43.1 -39.8 21.2 11.3 94.6 57.1 122.4 76.6 42.8 29.9 118.8 88.9 118.8 91.9 0 1.7 -8.6 12.3 -19.2 23.9 -10.3 11.6 -34.5 39.2 -53.4 61 -44.8 51.8 -42.5 49.1 -43.8 45.8z"/>
  <path d="M476.1 3566.4 c-12.9 -12.9 -40.1 -37.8 -60.7 -55.1 l-37.8 -31.9 30.9 -30.9 30.5 -30.9 26.9 20.2 c22.9 17.3 68 55.7 84.9 72.3 14.6 14.3 14.9 13.6 -19.2 47.4 l-32.2 32.2 -23.2 -23.6z"/>
  <path d="M7887.9 3544.5 c-10.3 -16.3 -26.9 -39.2 -36.5 -51.1 -10 -11.9 -17.9 -22.9 -17.9 -23.9 0 -1 11.6 -9 25.9 -17.9 54.4 -33.5 104.2 -71 158.9 -119.4 l27.2 -24.2 17.6 15.3 c9.6 8.6 28.2 24.9 40.8 36.5 12.9 11.3 26.9 23.6 31.2 26.9 l8 6.6 -49.8 43.1 c-27.5 23.9 -64.7 54.4 -82.6 68 -35.5 26.9 -97.5 69 -101.2 69 -1.3 0 -10.9 -12.9 -21.6 -28.9z"/>
  <path d="M9072.3 3510.9 c-23.9 -15.9 -59.1 -37.8 -78.3 -48.8 l-34.8 -19.9 28.5 -41.5 c15.6 -23.2 31.5 -46.1 35.5 -51.1 l7 -9.6 22.9 12.6 c43.8 23.9 137.4 82.6 137.4 86.6 0 1.3 -28.9 42.8 -54.7 78.6 -9 12.3 -16.9 22.2 -17.9 22.2 -1 0 -21.6 -13.3 -45.5 -29.2z"/>
  <path d="M922.4 3448.9 l0 -74.7 263.8 0 263.8 0 0 74.7 0 74.7 -263.8 0 -263.8 0 0 -74.7z"/>
  <path d="M550.1 3477.1 c-16.9 -16.6 -44.8 -40.8 -61.7 -53.7 l-30.9 -23.6 10.9 -11.9 c15.3 -16.3 40.1 -41.1 46.8 -46.1 4.6 -4 8.6 -2.3 29.5 12.3 37.8 26.2 100.2 81.6 98.2 86.9 -0.7 1.3 -14.6 16.6 -31.5 34.2 l-30.2 32.2 -31.2 -30.2z"/>
  <path d="M2549.8 3461.8 c-18.2 -16.9 -71.7 -58.1 -93.9 -72.7 l-14.3 -9.3 25.9 -26.2 c14.3 -14.6 28.5 -27.9 31.9 -29.5 4.6 -2.7 12.6 1.3 39.8 20.6 18.6 13.3 46.1 34.5 61.4 47.1 l27.5 22.9 -17.6 18.6 c-10 10.6 -22.9 24.6 -29.2 31.5 -6 6.6 -11.9 12.3 -12.9 12.3 -1 -0.3 -9.3 -7 -18.6 -15.3z"/>
  <path d="M4517.3 3416.7 c-16.3 -16.3 -42.8 -39.8 -58.7 -52.1 l-28.9 -22.9 31.9 -29.2 c17.6 -16.3 33.2 -29.5 34.5 -29.5 5 0 56.1 42.5 88.3 73 l32.5 31.2 -31.5 29.9 c-17.3 16.6 -32.8 29.9 -34.8 29.5 -1.7 0 -16.6 -13.6 -33.2 -29.9z"/>
  <path d="M1784.7 3150.3 c-30.2 -8 -49.1 -28.9 -55.7 -60.7 -5.3 -24.9 -5.3 -1830.8 0 -1856 7 -33.2 25.5 -51.4 61 -60.7 26.9 -7.3 1097.9 -7.3 1127.1 -0.3 36.8 9 55.7 28.2 62 63.4 5.6 30.5 4.6 369.6 -1 393.8 -8 34.5 -24.9 51.4 -60.4 60.4 -17.9 4.6 -60.7 5.3 -344.4 5.3 l-323.8 0 0 102.9 0 102.9 237.2 0 c163.2 0 242.2 1.3 254.5 3.6 14.3 3.3 20.2 7 34.2 21.2 24.9 25.9 24.9 27.5 24.9 239.5 -0.3 190.4 -1.3 205.4 -16.6 225.9 -10.6 14.6 -22.6 22.2 -43.8 28.5 -16.6 4.6 -45.8 5.3 -254.5 5.3 l-235.9 0 0 102.9 0 102.9 325.1 0 c228.9 0 330.1 1 342.4 3.6 34.2 7.3 55.4 29.5 62.4 64.7 5.6 28.9 3 386.5 -3 404.1 -2.3 7 -10.6 18.9 -18.6 26.9 -27.9 26.9 17.3 24.9 -605.8 24.6 -437.6 -0.3 -555.4 -1 -567.4 -4.6z m1118.4 -257.1 l0 -182.5 -366.6 0 -366.6 0 0 -182.5 0 -182.5 275.4 0 275.4 0 0 -182.5 0 -182.5 -275.4 0 -275.4 0 0 -184.1 0 -184.1 366.6 0 366.6 0 0 -182.5 0 -182.5 -549.1 0 -549.1 0 0 914.1 0 914.1 549.1 0 549.1 0 0 -182.5z"/>
  <path d="M172.9 3147.3 c-18.2 -4.3 -43.1 -27.9 -50.1 -46.8 -4.3 -11.6 -5 -133.7 -6 -927.3 -0.7 -673.5 0 -919.4 2.7 -934 6.3 -31.9 23.6 -50.8 54.7 -60.4 10.3 -3.3 91.2 -4.3 344.1 -4.3 366 0 360.3 -0.3 455.9 21.6 58.7 13.6 90.6 23.6 133.4 42.1 119.4 51.1 228.3 140 306.2 249.8 47.1 66 68 110.5 85.6 183.1 19.2 78.6 21.6 97.9 21.6 198.4 0 98.9 -1 109.8 -19.9 185.8 -24.6 99.2 -62.7 176.2 -133 267.8 -31.2 40.5 -67 74.3 -108.2 102.2 -17.6 11.9 -31.9 22.9 -32.2 24.6 0 1.7 2 5.6 4.3 8.3 2.7 3 25.9 38.8 52.1 80 26.2 41.1 56.7 88.9 68 106.2 11.3 17.3 32.8 51.1 47.8 74.7 15.3 23.9 37.8 58.7 50.4 78 12.6 19.2 24.6 38.2 26.9 42.5 2.3 4 18.6 29.5 35.8 56.1 17.3 26.9 44.5 68.7 60.4 93.6 35.2 54.1 41.8 72.3 35.8 100.5 -6.6 31.2 -25.9 50.8 -57.1 58.4 -21.9 5.6 -463.2 5.6 -486.7 0 -28.9 -6.6 -34.2 -12.9 -104.8 -122.1 -9 -13.6 -27.5 -42.1 -41.5 -63 -13.9 -20.9 -26.2 -40.5 -27.5 -43.1 -1 -2.7 -16.6 -26.5 -33.8 -53.1 -17.6 -26.5 -43.5 -66 -57.7 -87.9 -14.3 -21.9 -39.2 -60.1 -55.1 -84.6 -44.8 -68.7 -75.6 -116.1 -88.3 -135.7 l-11.3 -17.9 -1.7 273.4 c-1.3 212.7 -2.7 276.4 -6.3 286.3 -6.6 19.9 -32.2 42.8 -53.1 47.8 -22.9 5.3 -389.5 4.6 -411.4 -0.7z m391.8 -474.8 l1 -400.1 31.5 48.4 c17.3 26.5 39.8 61.4 50.1 77.3 10.3 15.9 35.8 55.1 56.4 86.9 20.9 31.9 44.8 68.3 52.8 81 8.3 12.6 27.2 41.8 42.1 64.7 14.9 22.9 38.2 59.1 51.8 80 13.6 20.9 37.8 58.4 53.7 82.9 36.5 55.7 66.4 101.9 92.9 142.7 11.3 17.3 35.8 55.1 54.4 83.9 l34.2 52.1 222 0 c122.1 0 222 -1 222 -2.3 0 -1.7 -13.9 -23.9 -30.9 -49.8 -16.6 -25.9 -34.5 -53.7 -39.2 -61.4 -5 -8 -35.2 -55.4 -67.7 -105.5 -32.2 -50.1 -63.4 -98.5 -69 -107.5 -24.6 -38.2 -75.3 -117.1 -98.5 -153 -13.6 -20.9 -27.2 -41.8 -29.9 -46.4 -2.7 -4.6 -21.9 -34.5 -42.5 -66.4 -20.6 -31.9 -38.2 -60.1 -39.2 -62.4 -1 -3 6 -7.6 20.9 -13.9 72.7 -30.2 123.1 -68.3 169.9 -127.4 63.4 -80.3 106.5 -169.9 126.1 -260.8 17.6 -81.6 17.6 -212.7 0 -297.6 -22.2 -107.8 -67.4 -184.1 -167.2 -282.3 -87.6 -86.6 -207.4 -146 -345.7 -172.2 -38.5 -7 -44.5 -7.3 -379.9 -8.3 l-341.1 -1.3 0 909.1 0 909.4 184.1 0 184.1 0 0.7 -399.8z"/>
  <path d="M633 2117.8 l-72.3 -1 0 -250.5 0 -250.5 118.8 0 c146.6 0 180.8 4 241.2 28.2 56.7 22.9 91.9 55.4 118.8 111.1 15.9 32.8 22.6 58.1 24.6 96.2 4.3 75.3 -22.9 144.3 -78.3 199.1 -30.9 30.9 -65.4 51.1 -104.8 61.7 -21.6 6 -104.8 8 -247.8 5.6z m249.5 -90.9 c42.1 -20.2 69 -48.8 89.6 -95.9 10.3 -23.6 10.9 -27.2 11.3 -64.7 0.3 -26.5 -1.3 -43.8 -4.3 -51.4 -22.2 -57.4 -50.4 -84.9 -106.5 -104.5 -29.5 -10.6 -75.6 -14.9 -154.9 -14.9 l-77.3 0 0 170.9 0 170.5 32.5 1.3 c17.6 0.7 66.7 1 108.5 1 l76.3 -0.7 24.9 -11.6z"/>
  <path d="M3152.3 3147.3 c-18.2 -4.3 -44.5 -28.5 -50.8 -47.1 -3.6 -10.6 -4.3 -175.5 -5.3 -928.7 -1 -1037.5 -3.6 -944.9 25.5 -973.8 11.9 -11.6 19.2 -15.9 32.8 -19.2 13.3 -3 89.6 -4 298.9 -4 300.3 0 296 -0.3 370.3 16.9 116.8 26.9 209.7 82.6 298.9 179.2 36.2 39.2 83.3 111.8 101.2 155.9 26.2 63.7 46.1 160.9 46.1 222 -0.3 43.1 -15.9 119.4 -38.2 185.8 -6.3 18.9 -11.6 34.8 -11.6 35.2 0 0.7 17.6 13.6 39.2 29.2 101.2 72.7 185.8 199.7 215.7 323.8 20.2 84.3 23.9 112.5 23.9 178.8 0 53.4 -5.3 96.2 -18.2 151.3 -22.2 94.9 -48.8 153.6 -103.8 228.3 -32.5 43.8 -34.2 45.8 -72 83.6 -103.2 103.5 -222.3 162.2 -371.6 182.8 -42.5 5.6 -757.1 6 -781 0z m787.7 -81.6 c84.6 -12.6 155.9 -40.1 222.3 -85.6 38.5 -26.5 55.7 -41.1 92.2 -78.3 89.9 -90.9 140 -189.4 158.6 -313.9 5.6 -37.2 6.6 -55.1 5.3 -104.5 -2.3 -78.3 -13.3 -135.4 -37.8 -197.4 -32.8 -82.9 -97.2 -171.2 -157.9 -216.7 -25.2 -18.9 -86.9 -57.1 -100.2 -62 l-8 -3 18.6 -39.2 c39.5 -83.9 59.7 -168.5 56.1 -234.9 -8.3 -148.6 -67.4 -263.4 -189.8 -367 -52.8 -44.8 -131.7 -82.3 -210.4 -100.2 -30.9 -7 -38.5 -7 -322.5 -8.3 l-291.3 -1 0 909.1 0 909.4 361 0 c340.4 0 363 -0.3 403.8 -6.6z"/>
  <path d="M3540.1 2497.3 l0 -220.3 45.5 -2 c65.4 -3.3 211.7 -2.7 258.1 1 68.3 5.3 115.1 26.5 157.6 71.7 113.5 120.1 62.4 315.2 -94.6 361.6 -17.6 5.3 -39.5 6 -193.1 7 l-173.5 1.3 0 -220.3z m367.6 125.7 c27.9 -13.9 49.1 -36.2 63 -66 10 -20.6 10.6 -24.9 10.6 -57.4 0 -33.5 -0.7 -35.8 -11.9 -59.7 -14.9 -30.2 -42.8 -57.4 -73.7 -72 -26.9 -12.6 -58.7 -15.3 -183.8 -15.3 l-92.2 -0.3 0 141 0 141 132.7 0 132.7 0 22.6 -11.3z"/>
  <path d="M3540.1 1775 l0 -165.9 80.6 0 c84.6 0 103.8 2.3 131.1 16.3 43.5 22.2 77.3 71 83.3 119.4 10.3 84.3 -38.2 153.9 -125.7 181.5 -13.6 4.3 -121.8 14.6 -154.9 14.6 l-14.3 0 0 -165.9z m122.8 78 c57.1 -4.3 92.9 -37.5 92.9 -86.3 0 -33.8 -14.9 -58.1 -44.8 -71.7 -10.6 -5 -21.6 -6.3 -52.1 -6.3 l-39.2 0 0 84.6 0 84.6 9.3 -1.7 c5 -0.7 20.2 -2.3 33.8 -3.3z"/>
  <path d="M4670.9 3147 c-20.9 -5.6 -34.2 -15.6 -44.8 -34.2 l-9.3 -15.6 -1 -924 c-0.7 -653.6 0.3 -929 3 -941.3 2.7 -13.9 6.6 -20.6 18.2 -32.5 25.5 -25.2 21.9 -24.9 239.9 -24.9 128.7 0 195.4 1.3 204.4 3.6 27.9 7.6 47.1 27.9 54.1 56.7 3 11.6 4 246.5 4 929 0 981.1 0.7 935.3 -16.3 956.9 -10.3 12.9 -26.2 22.9 -44.1 27.2 -23.2 6 -386.9 5 -408.1 -1z m388.9 -983.7 l0 -909.1 -182.5 0 -182.5 0 0 909.1 0 909.1 182.5 0 182.5 0 0 -909.1z"/>
  <path d="M5378.2 3147.3 c-10.6 -2.7 -19.2 -8.3 -31.5 -20.6 -15.6 -15.3 -17.3 -18.9 -21.2 -39.8 -6 -33.5 -4 -1845.4 2.3 -1863.3 2.3 -6.6 10.3 -18.2 17.6 -25.5 25.2 -25.2 5.6 -23.9 393.2 -22.6 384.2 1 354.7 -0.7 460.8 25.5 107.2 26.5 186.1 65.4 278.4 137.4 52.4 41.1 122.8 120.1 165.9 185.5 35.8 55.1 66.7 147.6 78.6 237.9 6.6 48.1 5.6 182.5 -1.3 224 -24.6 141 -68.7 238.6 -160.6 352.4 -30.5 38.2 -53.1 58.4 -95.9 87.3 l-33.8 22.6 10.3 15.9 c26.5 41.8 47.8 74.7 61.7 95.9 8.3 12.9 16.6 25.9 18.6 29.2 3 5.6 80.3 126.1 119.4 186.5 9.6 14.6 31.2 48.1 48.1 74.7 16.9 26.5 37.5 58.7 45.8 71.3 8.3 12.9 19.9 30.9 25.5 39.8 6 9.3 19.2 29.9 29.9 46.4 23.6 36.2 29.5 57.4 23.9 84.3 -3.3 15.3 -7 21.2 -20.6 35.2 -13.6 13.3 -20.2 17.3 -35.2 20.9 -27.2 6 -465.8 5.6 -489.4 -0.7 -25.5 -6.6 -33.8 -13.9 -56.1 -48.4 -46.4 -71.7 -67 -103.5 -96.9 -149.3 -63.4 -97.2 -103.2 -158.3 -201.1 -309.6 -18.2 -27.9 -40.1 -61.7 -49.1 -75.3 l-16.3 -24.9 0 262.1 c0 304.2 0.3 299.6 -26.5 326.5 -12.6 12.9 -18.6 15.9 -35.2 19.6 -26.2 5.3 -386.9 5 -409.4 -0.7z m388.9 -476.8 l1 -401.8 24.6 37.8 c34.5 53.4 82.3 126.7 115.1 176.5 15.3 23.6 27.9 43.1 27.9 43.8 0 0.3 10.3 16.3 22.6 35.2 12.3 18.9 32.2 49.1 44.1 67 11.6 18.2 34.8 53.7 51.1 79 16.6 25.2 47.1 72 68 104.5 20.9 32.2 51.8 79.3 68 104.5 16.6 24.9 39.5 61 51.4 79.6 11.9 18.6 27.5 42.8 34.8 54.1 l13.3 19.9 223.3 1 c122.4 0.3 223 0 223 -1 0 -1.7 -28.5 -46.4 -81.3 -128.1 -31.9 -49.1 -39.5 -60.7 -43.1 -67 -3.3 -5.6 -16.3 -25.5 -76.3 -118.4 -17.3 -26.5 -35.8 -55.4 -41.5 -64.7 -5.6 -9 -17.3 -27.5 -25.9 -40.8 -8.6 -13.3 -31.2 -48.1 -50.1 -78 -33.5 -51.8 -60.1 -93.2 -89.3 -138.4 -13.6 -21.6 -13.9 -21.6 -6.3 -24.6 107.2 -42.8 173.2 -100.2 237.9 -207.7 36.8 -60.7 61.7 -124.1 77 -195.1 7 -32.8 7.6 -43.5 7.6 -140 0 -94.2 -0.7 -108.2 -7.3 -141 -17.3 -85.9 -48.1 -151.6 -103.8 -221 -20.9 -25.9 -80.6 -86.3 -105.5 -106.2 -86.9 -70 -183.1 -112.8 -307.6 -136.7 -35.5 -6.6 -47.1 -7 -377.2 -8 l-341.1 -1.3 0 909.1 0 909.4 182.5 0 182.5 0 0.7 -401.8z"/>
  <path d="M5838.8 2117.8 l-72.3 -1 0 -250.5 0 -250.5 118.8 0 c137.7 0 175.5 4 231.6 24.2 72 26.2 123.8 83.6 145.7 161.6 8.3 29.5 8.6 89.3 0.3 122.8 -16.6 69 -66.7 135.4 -125.4 167.2 -23.9 12.9 -39.5 18.2 -70.7 23.9 -26.5 4.6 -35.8 4.6 -227.9 2.3z m216.7 -80.6 c47.4 -9 93.6 -46.1 115.8 -93.9 30.5 -64.7 23.9 -131.4 -18.2 -185.5 -14.6 -18.6 -28.5 -28.2 -62 -41.8 -37.8 -15.9 -77 -20.6 -167.6 -20.6 l-77.3 0 0 170.9 0 170.5 32.5 1.3 c77.6 2.3 160.3 2 176.8 -1z"/>
  <path d="M7366 3147.3 c-18.2 -4.3 -43.1 -27.9 -50.1 -46.8 -4.3 -11.6 -5 -108.2 -6 -709 l-0.7 -696.1 -186.8 0 c-202.7 0 -205.7 -0.3 -229.9 -18.6 -13.9 -10.6 -22.2 -26.2 -27.5 -50.4 -2.3 -11.6 -3.6 -75.6 -3.6 -191.8 0 -205.7 0.7 -211.3 26.2 -236.6 11.9 -11.9 19.2 -16.3 32.8 -19.6 25.2 -5.6 1281 -6 1303.9 0 32.8 8 50.8 28.5 57.1 65 5.6 32.2 3 382.2 -2.7 399.8 -2.3 7 -10.6 18.9 -18.2 26.9 -24.2 25.2 -22.9 25.2 -236.9 25.2 l-186.8 0 0 688.5 c0 498 -1 693.1 -3.6 705.7 -6.6 30.9 -25.9 50.8 -56.7 58.4 -20.6 5.3 -389.2 4.6 -410.4 -0.7z m391.2 -803.3 l0 -728.3 224 0 224 0 0 -180.8 0 -180.8 -632.1 0 -632.1 0 0 180.8 0 180.8 224 0 224 0 0 728.3 0 728.3 184.1 0 184.1 0 0 -728.3z"/>
  <path d="M8454.2 3147.3 c-19.6 -4.6 -44.8 -28.9 -50.8 -48.8 -6.3 -21.6 -6.3 -1849 0 -1870.6 6.6 -21.9 30.9 -44.1 53.1 -49.4 12.9 -3 69.7 -4 206 -4 209.4 0 211.7 0.3 233.2 21.2 6.3 6 14.3 16.9 17.9 23.9 6 12.6 6.3 25.2 7.3 347.4 l0.7 334.1 224 0 224 0 0 -321.8 c0 -367 -1 -353 24.9 -379.9 24.6 -25.2 22.2 -24.9 238.9 -24.9 216 0 214 -0.3 238.6 24.6 27.2 27.2 25.2 -54.1 25.2 965.5 -0.3 968.5 0.7 925 -16.6 952.6 -4 6.3 -11.3 14.6 -16.6 18.2 -22.6 15.9 -29.2 16.6 -226.9 16.6 -216.3 0 -217.3 0 -240.9 -23.6 -27.5 -27.5 -26.5 -11.6 -26.5 -381.2 l0 -321.8 -224 0 -224 0 -0.7 334.4 -1 334.1 -8 15.9 c-4 8.6 -12.6 19.6 -18.6 24.2 -22.9 17.3 -30.9 17.9 -235.6 17.3 -122.4 -0.3 -194.4 -1.7 -203.7 -4z m387.9 -439.9 l0 -365 305.2 0 305.2 0 0 365 0 365 180.8 0 180.8 0 0 -909.1 0 -909.1 -180.8 0 -180.8 0 0 363.3 0 363.3 -305.2 0 -305.2 0 0 -363.3 0 -363.3 -182.5 0 -182.5 0 0 909.1 0 909.1 182.5 0 182.5 0 0 -365z"/>
  <path d="M5782.7 949.9 c-6 -7 -42.1 -45.5 -80.6 -85.3 -38.5 -40.1 -88.6 -92.6 -111.5 -116.1 -22.9 -23.9 -57.1 -59.7 -76.3 -79.6 -19.2 -20.2 -38.5 -40.5 -43.1 -45.5 -14.6 -15.3 -146.6 -153 -174.9 -182.1 l-27.5 -28.2 0 268.1 0 267.8 -53.1 0 -53.1 0 0 -397.5 0 -397.8 54.1 55.1 c81 82.6 66.4 67.7 284.3 292.3 57.4 59.4 122.8 126.4 145 149.3 l40.8 41.5 0 -266.1 0 -266.4 54.7 0 54.7 0 0 401.5 c0 221 -0.7 401.5 -1.3 401.5 -0.7 0 -6.3 -5.6 -12.3 -12.3z"/>
  <path d="M3231.6 953.6 c-75.3 -9.3 -116.1 -22.6 -179.5 -58.4 -29.5 -16.6 -81.3 -62.7 -107.8 -95.9 -57.1 -71.7 -84.3 -149.6 -84.3 -243.5 0 -97.5 28.5 -178.8 87.3 -249.2 85.3 -102.2 188.1 -151.6 312.2 -151 72.3 0.7 116.8 9.6 174.9 35.2 28.5 12.3 84.3 46.4 92.6 56.4 2 2.7 -8.3 15.3 -34.5 41.1 l-37.5 37.5 -16.3 -11.6 c-23.9 -16.9 -59.1 -33.8 -89.3 -42.5 -22.9 -7 -33.8 -8 -81.3 -8 -62 0 -88.3 5.3 -131.1 26.9 -109.2 55.1 -173.2 162.9 -166.6 281 3.3 61.7 23.9 114.1 64 164.2 58.4 72.7 138.7 110.8 233.6 110.8 100.5 0 183.1 -41.8 243.5 -123.4 11.9 -16.3 48.1 -83.9 48.4 -90.2 0 -1.7 -59.7 -2.7 -132.7 -2.7 l-132.7 0 0 -48.1 0 -48.1 189.1 0 189.1 0 0 24.2 c0 81.3 -28.9 168.9 -76.3 231.3 -28.5 37.2 -75.6 80.6 -114.5 105.2 -35.8 22.9 -92.9 44.5 -136.7 52.4 -29.9 5.3 -93.2 8.6 -113.8 6.3z"/>
  <path d="M4366.3 953.6 c-106.2 -12.9 -177.5 -45.1 -247.8 -111.8 -83.9 -79.6 -124.8 -173.5 -124.4 -287.7 0 -110.5 41.5 -207.7 122.4 -285.7 80 -77.3 170.9 -113.5 286.3 -113.5 118.4 0 206.4 37.2 292 123.4 58.4 59.1 88.6 112.5 106.8 190.4 6 25.5 7 40.1 7 88.6 -0.3 51.1 -1.3 61.7 -8.6 89.9 -25.5 97.5 -77.3 171.5 -165.2 235.9 -36.8 27.2 -104.2 55.1 -154.6 64 -29.9 5.3 -93.2 8.6 -113.8 6.3z m87.9 -112.5 c49.1 -9 85.3 -23.9 121.1 -49.8 57.7 -41.8 99.2 -101.2 116.5 -165.9 9.6 -34.8 10.3 -101.9 2 -135.7 -21.9 -87.9 -80.6 -160.3 -162.9 -200.4 -79.3 -38.5 -180.5 -38.5 -258.8 -0.3 -36.2 17.9 -63 37.8 -90.9 67.4 -30.5 32.8 -50.8 65.7 -64.4 104.8 -10.6 31.2 -10.6 32.5 -10.9 91.2 0 53.7 1 62 8 84.6 18.9 59.7 51.8 106.2 103.2 146.6 64.4 51.1 154.3 72.7 237.2 57.4z"/>
  <path d="M89.6 554.1 l0 -391.5 128.7 0 c140 0 157.9 2 216.3 21.9 83.6 28.9 163.6 91.6 201.7 158.9 35.2 62.4 53.7 134.7 53.7 210.7 -0.3 139.3 -56.1 251.2 -160.6 322.8 -41.8 28.2 -114.1 56.4 -169.5 65.4 -10.9 1.7 -76.3 3.3 -145 3.3 l-125.4 0 0 -391.5z m283.7 279 c119.8 -29.9 196.1 -119.8 208 -244.9 15.3 -159.3 -71.7 -285.7 -217.7 -316.2 -23.9 -5.3 -43.8 -6.6 -97.2 -6.6 l-67.4 0 0 289 0 289.3 74 -2 c58.1 -1.3 79.3 -3.3 100.2 -8.6z"/>
  <path d="M1041.8 552.1 l0 -393.5 150.3 1.7 c159.9 1.7 163.9 2 214 20.2 65 23.6 127.7 82.6 151.3 142.3 18.2 46.1 19.9 128.4 3.6 177.2 -16.3 48.1 -53.7 100.9 -86.3 121.1 -7.3 4.3 -27.5 13.9 -44.8 20.9 -17.3 7 -31.9 13.3 -32.5 13.6 -1.3 0.7 24.6 40.5 163.9 251.8 10.6 16.3 20.9 31.5 22.2 33.8 2 3.3 -10.6 4.3 -64.7 4.3 l-67.4 -0.3 -89.6 -135.7 -89.6 -135.7 -60.4 -0.3 -60.7 0 0 136 0 136 -54.7 0 -54.7 0 0 -393.5z m298.6 11.9 c25.5 -5 44.5 -15.6 70 -39.2 16.6 -15.3 25.5 -27.2 33.2 -42.8 19.2 -40.1 19.6 -94.9 1 -132.7 -11.6 -23.9 -42.5 -55.4 -63 -64.4 -41.1 -17.9 -53.7 -19.6 -144.7 -19.6 l-85.6 0 0 151 0 151 85.9 0 c47.1 0 93.6 -1.7 103.2 -3.3z"/>
  <path d="M1919 920 c6.3 -14.3 25.5 -58.7 42.8 -98.9 17.3 -40.1 45.1 -104.2 62 -142.7 16.9 -38.2 67 -153.3 111.1 -255.5 44.1 -102.2 88.6 -204 98.2 -226.3 13.9 -31.9 18.6 -39.8 21.9 -36.8 2.3 2 4.3 5 4.3 6.6 0 1.7 4 11.6 8.6 21.9 4.6 10.3 41.5 95.2 81.6 188.1 39.8 93.2 75.6 175.2 79 182.5 3.3 7.3 9.3 20.9 13.3 29.9 4 9.3 10 22.6 13.3 29.9 11.6 24.9 136.7 315.2 138.4 321.2 1.7 5.3 -2.7 5.6 -54.7 5.6 l-56.7 0 -9.6 -20.6 c-5.3 -11.6 -18.2 -39.8 -28.9 -63 l-19.2 -42.5 -172.2 0 -171.9 0 -8.6 19.2 c-4.6 10.3 -17.3 38.8 -28.5 63 l-20.2 43.8 -57.4 0 -57.4 0 10.9 -25.5z m463.2 -188.1 c0 -0.7 -6.6 -17.6 -15.3 -37.5 -23.9 -57.4 -33.2 -80 -48.1 -118.8 -7.6 -19.9 -21.2 -54.4 -30.2 -76.3 -9 -21.9 -20.2 -49.1 -24.9 -60.4 -4.6 -11.6 -9.6 -20.9 -11.3 -20.9 -1.7 0 -3 0.3 -3 1 0 0.7 -8.3 21.2 -18.6 45.8 -10.3 24.6 -24.6 59.4 -31.9 77.6 -43.8 109.8 -53.1 132.1 -63.7 157.6 -6.6 15.3 -11.9 29.2 -11.9 30.5 0 1.3 58.4 2.7 129.4 2.7 71.3 0 129.4 -0.7 129.4 -1.3z"/>
  <path d="M6778.4 552.1 l0 -393.5 123.8 1.3 c117.1 1.3 124.8 2 146.6 9 87.9 28.5 147.6 104.5 147.6 187.8 0 35.8 -13.3 76.3 -38.8 119.8 l-10 16.9 33.2 16.3 c18.2 9 38.8 20.9 45.8 26.2 26.9 21.6 58.1 68.3 71.3 107.8 9 26.2 9 109.5 0 136 -25.9 76.6 -85.3 135 -161.2 157.6 l-27.9 8.3 -165.2 0 -165.2 0 0 -393.5z m327.8 289.3 c81.6 -21.9 121.8 -117.1 82 -194.4 -15.3 -29.9 -58.1 -61.7 -92.9 -69.3 -19.9 -4.3 -64 -5.6 -148.3 -4.3 l-62.4 0.7 0 136 0 136 102.2 0 c76.6 0 106.2 -1.3 119.4 -4.6z m-105.2 -365.3 c39.2 -6.6 67 -27.5 84.6 -63.7 7.6 -15.3 9.3 -22.9 9.3 -44.1 0 -22.6 -1.7 -28.9 -10.9 -47.8 -10.6 -21.9 -26.5 -37.8 -50.1 -50.4 -10 -5.3 -21.2 -6.3 -80.3 -7.3 l-69 -1.3 0 111.8 0 111.8 45.8 -2.3 c24.9 -1.3 56.7 -4.3 70.7 -6.6z"/>
  <path d="M7632.4 935 c2.7 -6 31.9 -73.7 65 -150.3 33.2 -76.6 89.9 -207.4 126.1 -290.3 36.2 -82.9 84.6 -194.1 107.2 -246.5 l41.1 -95.6 27.5 62.4 c14.9 34.2 53.1 122.1 84.6 195.1 31.5 73 85.6 197.7 120.1 277 99.5 227.9 110.5 253.2 110.5 256.1 0 1.3 -25.5 2.7 -56.7 2.7 l-56.4 0 -11.6 -25.5 c-18.2 -39.5 -26.2 -57.1 -36.2 -80 l-9.3 -20.6 -172.2 0.7 -172.5 1 -19.6 43.1 c-10.9 23.9 -23.9 51.8 -28.5 62.4 l-9 18.9 -57.4 0 -57.4 0 4.6 -10.6z m468.8 -205.7 c-1 -2.3 -12.9 -31.9 -26.9 -65.4 -14.3 -33.5 -32.2 -78.3 -40.1 -99.5 -13.6 -36.5 -56.4 -141 -60.4 -147.3 -2.3 -3.6 -20.2 37.8 -59.4 137 -28.5 72 -50.1 124.8 -65.7 160.3 l-8.6 18.9 131.4 0 c103.8 0 131.1 -1 129.7 -4z"/>
  <path d="M8669.5 552.4 l0 -393.2 53.1 0 53.1 0 0 341.7 0 341.7 175.8 0 175.8 0 0 51.4 0 51.4 -228.9 0 -228.9 0 0 -393.2z"/>
  <path d="M9479.1 552.4 l0 -393.2 53.1 0 53.1 0 0 341.7 0 341.7 175.8 0 175.8 0 0 51.4 0 51.4 -228.9 0 -228.9 0 0 -393.2z"/>
 </g>
</svg>